<svg width="52" height="52" viewBox="0 0 52 52" fill="none" xmlns="http://www.w3.org/2000/svg">
<g clip-path="url(#clip0_70_156)">
<path d="M42.804 18.745L35.9833 25.3747C36.1576 25.8715 36.2963 26.3878 36.3951 26.9212C36.567 27.8488 36.608 28.7709 36.5324 29.6687L45.0884 33.3347C46.2742 28.4054 45.4586 23.1203 42.804 18.745Z" fill="#5922C8"/>
<path d="M34.7576 22.9617L41.2975 16.6047C39.1343 13.9364 36.2885 11.879 33.0688 10.6622L29.497 18.9983C31.6234 19.711 33.48 21.1028 34.7576 22.9617Z" fill="#5922C8"/>
<path d="M24.8164 21.1803C20.6123 21.9592 17.8256 26.0133 18.6045 30.2174C19.3834 34.4216 23.4375 37.2083 27.6417 36.4293C31.8458 35.6504 34.6325 31.5964 33.8536 27.3922C33.0747 23.188 29.0206 20.4014 24.8164 21.1803ZM27.1708 33.8878C24.368 34.4071 21.6653 32.5493 21.146 29.7466C20.6267 26.9438 22.4845 24.2411 25.2873 23.7218C28.0901 23.2025 30.7928 25.0603 31.3121 27.8631C31.8313 30.6658 29.9736 33.3685 27.1708 33.8878Z" fill="#5922C8"/>
<path d="M32.2207 37.229L38.5719 43.7631C41.131 41.6453 43.1127 38.8849 44.3099 35.8131L35.9774 32.2428C35.2687 34.2415 33.9561 35.9907 32.2207 37.229Z" fill="#5922C8"/>
<path d="M26.6999 31.3463C28.1036 31.0862 29.0306 29.7375 28.7706 28.3339C28.5105 26.9303 27.1618 26.0032 25.7582 26.2633C24.3545 26.5233 23.4275 27.872 23.6875 29.2756C23.9476 30.6793 25.2963 31.6063 26.6999 31.3463Z" fill="#5922C8"/>
<path d="M26.3246 39.1439L22.5917 47.856C27.3369 48.7606 32.3373 47.8369 36.45 45.2884L29.8438 38.4919C28.719 38.911 27.526 39.1322 26.3246 39.1439Z" fill="#5922C8"/>
<path d="M26.9041 18.4871L30.5799 9.90829C29.4006 9.63652 28.1947 9.47658 26.977 9.43073C26.2215 12.0904 24.8889 14.6914 23.9969 16.7569C22.4286 15.1514 20.2526 13.203 18.59 10.9846C17.4695 11.4637 16.4009 12.0451 15.3972 12.7211L21.9024 19.4137C23.4341 18.7078 25.1599 18.3728 26.9041 18.4871Z" fill="#5922C8"/>
<path d="M18.3595 35.5069L11.859 41.8253C14.0762 44.2631 16.9149 46.131 20.0643 47.1921L23.653 38.8164C21.5892 38.282 19.7371 37.1191 18.3595 35.5069Z" fill="#5922C8"/>
<path d="M15.8935 29.0968L7.15039 25.3507C6.24064 30.3799 7.3674 35.6074 10.2443 39.7902L16.9192 33.3024C16.2948 32.011 15.9362 30.5761 15.8935 29.0968Z" fill="#5922C8"/>
<path d="M19.6649 20.82L13.3437 14.3168C10.7789 16.6018 8.85584 19.54 7.79006 22.8128L16.1733 26.4049C16.7001 24.2117 17.9348 22.2471 19.6649 20.82Z" fill="#5922C8"/>
<path d="M24.7681 6.73099C24.5081 5.3274 23.1593 4.40031 21.7557 4.66035C20.3522 4.9204 19.4251 6.26914 19.6851 7.67273C19.9452 9.07632 23.1684 12.2849 23.1684 12.2849C23.1684 12.2849 25.0282 8.13458 24.7681 6.73099Z" fill="#5922C8"/>
</g>
<defs>
<clipPath id="clip0_70_156">
<rect width="43.9416" height="43.9416" fill="white" transform="translate(0.152588 8.66284) rotate(-10.4963)"/>
</clipPath>
</defs>
</svg>
