<svg width="24" height="22" viewBox="0 0 24 22" fill="none" xmlns="http://www.w3.org/2000/svg">
<path d="M2.72878 12.57C3.02808 12.8675 3.51138 12.8675 3.81067 12.57L6.11255 10.2681L5.03066 9.18619L4.11758 10.0993C4.75746 5.05451 9.36578 1.48367 14.4105 2.12354C19.4553 2.76342 23.0261 7.37173 22.3863 12.4165C21.8026 17.0182 17.8869 20.4672 13.2484 20.4654L13.2484 22C19.1811 22.002 23.9921 17.1942 23.9941 11.2615C23.9962 5.32882 19.1884 0.517788 13.2557 0.515774C7.72276 0.513904 3.09349 4.71493 2.55998 10.222L1.51646 9.17852L0.434575 10.2604L2.72878 12.57Z" fill="#5922C8"/>
<path d="M9.64198 8.4111V12.2476C9.64078 12.4515 9.72087 12.6475 9.8645 12.7923L12.1664 15.0942L13.2483 14.0123L11.1766 11.933V8.4111H9.64198Z" fill="#5922C8"/>
</svg>
