<svg width="78" height="78" viewBox="0 0 78 78" fill="none" xmlns="http://www.w3.org/2000/svg">
<g clip-path="url(#clip0_70_169)">
<path fill-rule="evenodd" clip-rule="evenodd" d="M52.8867 25.312C54.3829 26.5266 56.5855 26.3048 57.8001 24.8085C57.8636 24.729 57.9308 24.6381 57.983 24.5549L62.8878 26.1538C63.3862 26.3163 63.9269 26.0414 64.0894 25.543C64.2519 25.0446 63.977 24.5039 63.4786 24.3414L58.5739 22.7425C58.6515 20.813 57.1488 19.1953 55.2193 19.1177C53.2897 19.04 51.672 20.5427 51.5944 22.4723C51.5821 22.8943 51.6452 23.3159 51.776 23.7219L45.8694 26.1573C45.0891 24.3992 43.0305 23.6028 41.2611 24.3793C40.953 24.517 40.6716 24.6884 40.4131 24.9049L37.3609 22.0052C38.1667 20.2253 37.3618 18.1584 35.5972 17.3826C33.8326 16.6069 31.7694 17.4004 30.9823 19.1614C30.9341 19.271 30.8858 19.3805 30.8489 19.4938C30.7086 19.9243 30.6552 20.3956 30.6845 20.8437L24.7126 23.0949C23.5645 21.5427 21.3885 21.2218 19.8363 22.3699C18.2841 23.518 17.9632 25.694 19.1113 27.2462C20.2594 28.7984 22.4354 29.1193 23.9876 27.9712C24.9624 27.2489 25.4935 26.0812 25.3838 24.8801L31.367 22.6326C32.4735 24.1587 34.5971 24.5252 36.1611 23.4561L39.3687 26.4942C38.7818 28.3329 39.8083 30.2966 41.647 30.8835C43.4857 31.4703 45.4494 30.4438 46.0363 28.6051C46.0917 28.4352 46.1358 28.2616 46.1572 28.0806L52.8603 25.316C52.8566 25.3273 52.8716 25.3197 52.8867 25.312ZM21.4133 26.6809C20.5751 26.4077 20.1283 25.5102 20.3979 24.6833C20.6712 23.845 21.5687 23.3983 22.3956 23.6678C23.2338 23.9411 23.6806 24.8386 23.411 25.6655C23.1414 26.4924 22.2439 26.9392 21.4133 26.6809ZM33.688 22.086C32.8498 21.8127 32.403 20.9152 32.6726 20.0883C32.9458 19.2501 33.8433 18.8033 34.6702 19.0729C35.5085 19.3462 35.9552 20.2437 35.6857 21.0706C35.4161 21.8975 34.5262 22.3592 33.688 22.086ZM42.2039 29.06C41.3656 28.7868 40.9189 27.8892 41.1884 27.0623C41.4617 26.2241 42.3592 25.7774 43.1861 26.0469C44.0243 26.3202 44.4711 27.2177 44.2015 28.0446C43.9283 28.8828 43.0421 29.3333 42.2039 29.06ZM55.5903 21.0932C56.4285 21.3665 56.8752 22.264 56.6057 23.0909C56.3324 23.9291 55.4349 24.3759 54.608 24.1063C53.7698 23.833 53.323 22.9355 53.5926 22.1086C53.8545 21.2667 54.752 20.82 55.5903 21.0932ZM59.6727 63.5011L61.5814 67.2561C62.2838 68.6379 61.7373 70.3144 60.3554 71.0168C58.9736 71.7192 57.2971 71.1727 56.5947 69.7908L54.705 66.0546C54.2576 66.1969 53.7853 65.9928 53.5715 65.5723L52.4721 63.4094C52.2583 62.9888 52.3831 62.4907 52.7505 62.2094L52.5596 61.8339C50.7279 62.302 48.8218 62.3447 46.9732 61.9802C40.0845 60.6243 35.5982 53.9363 36.9541 47.0476L8.8622 37.8899C8.3638 37.7274 8.08895 37.1867 8.25142 36.6883C8.4139 36.1899 8.95462 35.915 9.45302 36.0775L14.1312 37.6026L15.9628 31.9842C16.1252 31.4858 16.666 31.2109 17.1644 31.3734L22.0804 32.976C22.5789 33.1385 22.8537 33.6792 22.6912 34.1776L20.8597 39.796L23.8841 40.7819L28.2451 27.4043C28.4076 26.9059 28.9483 26.631 29.4467 26.7935L34.3628 28.3961C34.8612 28.5586 35.136 29.0993 34.9735 29.5977L30.6089 42.9866L33.6333 43.9726L36.7572 34.3896C36.9197 33.8912 37.4604 33.6164 37.9588 33.7788L42.8749 35.3814L42.8976 35.3888C43.3923 35.5626 43.6521 36.111 43.4783 36.6057L42.7201 38.7394C43.932 37.9816 45.2622 37.4378 46.6541 37.1272L49.1614 29.4359C49.3239 28.9375 49.8646 28.6626 50.363 28.8251L55.2791 30.4277C55.7775 30.5902 56.0523 31.1309 55.8899 31.6293L53.9328 37.6328C55.9988 38.4066 57.8273 39.7169 59.2288 41.4144C63.7066 46.8214 62.961 54.8364 57.5539 59.3142L57.76 59.7198C58.174 59.6417 58.5973 59.8423 58.7995 60.2215L59.8989 62.3844C60.0784 62.7562 59.991 63.2164 59.6727 63.5011ZM54.4478 61.3467L53.9057 60.2803C53.6919 59.8597 53.2046 59.6633 52.7572 59.8056C47.084 61.6404 40.9824 58.5235 39.1476 52.8503C37.3129 47.1771 40.4298 41.0755 46.103 39.2407C51.7762 37.406 57.8778 40.5229 59.7125 46.1961C61.1549 50.6512 59.5671 55.5219 55.7762 58.2711C55.3975 58.5486 55.269 59.0581 55.4828 59.4786L56.0249 60.5451L54.4478 61.3467ZM52.2291 40.937C47.4942 39.3935 42.4025 41.9817 40.8589 46.7165C39.3154 51.4514 41.9036 56.5432 46.6385 58.0867C51.3733 59.6302 56.4651 57.042 58.0086 52.3072C59.5521 47.5723 56.9639 42.4805 52.2291 40.937ZM57.5184 61.9217L54.6046 63.4028L54.8412 63.8684L57.7551 62.3873L57.5184 61.9217ZM59.4927 69.3195C59.9283 69.0981 60.1018 68.5657 59.8841 68.1188L57.9907 64.3939L56.3986 65.2032L58.292 68.9281C58.5247 69.3674 59.0571 69.5409 59.4927 69.3195Z" fill="white"/>
</g>
<defs>
<clipPath id="clip0_70_169">
<rect width="61" height="61" fill="white" transform="translate(19.8905 0.984375) rotate(18.0555)"/>
</clipPath>
</defs>
</svg>
