<svg width="57" height="60" viewBox="0 0 57 60" fill="none" xmlns="http://www.w3.org/2000/svg">
<g filter="url(#filter0_d_213_1148)">
<circle cx="28.6788" cy="27.7081" r="27.7081" fill="#AC84FA"/>
</g>
<path d="M28.6761 40.3503V22.4943L24.8601 23.1063V18.2463L34.4721 16.8063V40.3503H28.6761Z" fill="black"/>
<path d="M28.6761 40.3503H27.6761V41.3503H28.6761V40.3503ZM28.6761 22.4943H29.6761V21.3212L28.5178 21.507L28.6761 22.4943ZM24.8601 23.1063H23.8601V24.2795L25.0185 24.0937L24.8601 23.1063ZM24.8601 18.2463L24.712 17.2574L23.8601 17.385V18.2463H24.8601ZM34.4721 16.8063H35.4721V15.6454L34.324 15.8174L34.4721 16.8063ZM34.4721 40.3503V41.3503H35.4721V40.3503H34.4721ZM29.6761 40.3503V22.4943H27.6761L27.6761 40.3503H29.6761ZM28.5178 21.507L24.7018 22.119L25.0185 24.0937L28.8345 23.4817L28.5178 21.507ZM25.8601 23.1063V18.2463H23.8601V23.1063H25.8601ZM25.0083 19.2353L34.6203 17.7953L34.324 15.8174L24.712 17.2574L25.0083 19.2353ZM33.4721 16.8063V40.3503H35.4721V16.8063H33.4721ZM34.4721 39.3503H28.6761V41.3503H34.4721V39.3503Z" fill="white"/>
<defs>
<filter id="filter0_d_213_1148" x="0.970703" y="0" width="55.416" height="59.4163" filterUnits="userSpaceOnUse" color-interpolation-filters="sRGB">
<feFlood flood-opacity="0" result="BackgroundImageFix"/>
<feColorMatrix in="SourceAlpha" type="matrix" values="0 0 0 0 0 0 0 0 0 0 0 0 0 0 0 0 0 0 127 0" result="hardAlpha"/>
<feOffset dy="4"/>
<feComposite in2="hardAlpha" operator="out"/>
<feColorMatrix type="matrix" values="0 0 0 0 0.482892 0 0 0 0 0.226667 0 0 0 0 1 0 0 0 1 0"/>
<feBlend mode="normal" in2="BackgroundImageFix" result="effect1_dropShadow_213_1148"/>
<feBlend mode="normal" in="SourceGraphic" in2="effect1_dropShadow_213_1148" result="shape"/>
</filter>
</defs>
</svg>
