<svg width="57" height="60" viewBox="0 0 57 60" fill="none" xmlns="http://www.w3.org/2000/svg">
<g filter="url(#filter0_d_213_1166)">
<circle cx="28.5929" cy="27.7081" r="27.7081" fill="#ACFF50"/>
</g>
<path d="M29.7329 40.7106C29.0609 40.7106 28.2689 40.6626 27.3569 40.5666C26.4449 40.4706 25.5449 40.3386 24.6569 40.1706C23.7929 39.9786 23.0729 39.7626 22.4969 39.5226L22.4969 34.6986C23.4809 35.1546 24.5369 35.4786 25.6649 35.6706C26.7929 35.8626 27.8489 35.9586 28.8329 35.9586C30.3449 35.9586 31.4729 35.7546 32.2169 35.3466C32.9849 34.9386 33.3689 34.1946 33.3689 33.1146C33.3689 32.2746 33.0449 31.6626 32.3969 31.2786C31.7729 30.8946 30.8609 30.7026 29.6609 30.7026H25.8809L26.2769 26.6346H29.4089C30.6329 26.6346 31.5209 26.4426 32.0729 26.0586C32.6249 25.6506 32.9009 25.0026 32.9009 24.1146C32.9009 23.2746 32.5649 22.6386 31.8929 22.2066C31.2449 21.7746 30.1889 21.5586 28.7249 21.5586C27.6929 21.5586 26.6489 21.6786 25.5929 21.9186C24.5369 22.1346 23.6249 22.4226 22.8569 22.7826V18.0306C23.6969 17.6946 24.7409 17.4066 25.9889 17.1666C27.2609 16.9266 28.5329 16.8066 29.8049 16.8066C32.7329 16.8066 34.9649 17.4306 36.5009 18.6786C38.0609 19.9026 38.8409 21.4746 38.8409 23.3946C38.8409 24.4986 38.6009 25.5306 38.1209 26.4906C37.6649 27.4506 36.9569 28.1706 35.9969 28.6506C37.1009 29.0346 37.9169 29.6586 38.4449 30.5226C38.9969 31.3866 39.2729 32.4306 39.2729 33.6546C39.2729 35.2626 38.8649 36.5946 38.0489 37.6506C37.2329 38.6826 36.1049 39.4506 34.6649 39.9546C33.2489 40.4586 31.6049 40.7106 29.7329 40.7106Z" fill="black"/>
<path d="M27.3569 40.5666L27.4615 39.5721L27.3569 40.5666ZM24.6569 40.1706L24.4399 41.1468L24.4554 41.1502L24.471 41.1532L24.6569 40.1706ZM22.4969 39.5226H21.4969V40.1893L22.1122 40.4457L22.4969 39.5226ZM22.4969 34.6986L22.9173 33.7913L21.4969 33.133V34.6986H22.4969ZM25.6649 35.6706L25.4971 36.6564L25.6649 35.6706ZM32.2169 35.3466L31.7477 34.4634L31.736 34.4698L32.2169 35.3466ZM32.3969 31.2786L31.8728 32.1302L31.8799 32.1346L31.8871 32.1389L32.3969 31.2786ZM25.8809 30.7026L24.8856 30.6057L24.7788 31.7026H25.8809V30.7026ZM26.2769 26.6346V25.6346H25.3695L25.2816 26.5377L26.2769 26.6346ZM32.0729 26.0586L32.6439 26.8795L32.6557 26.8713L32.6673 26.8628L32.0729 26.0586ZM31.8929 22.2066L31.3382 23.0386L31.3451 23.0433L31.3521 23.0478L31.8929 22.2066ZM25.5929 21.9186L25.7933 22.8983L25.8039 22.8961L25.8145 22.8937L25.5929 21.9186ZM22.8569 22.7826H21.8569V24.3557L23.2813 23.688L22.8569 22.7826ZM22.8569 18.0306L22.4855 17.1021L21.8569 17.3536V18.0306H22.8569ZM25.9889 17.1666L25.8035 16.1839L25.8 16.1846L25.9889 17.1666ZM36.5009 18.6786L35.8703 19.4547L35.8769 19.4601L35.8836 19.4653L36.5009 18.6786ZM38.1209 26.4906L37.2264 26.0434L37.2219 26.0524L37.2176 26.0615L38.1209 26.4906ZM35.9969 28.6506L35.5496 27.7562L33.4294 28.8163L35.6683 29.5951L35.9969 28.6506ZM38.4449 30.5226L37.5916 31.044L37.5968 31.0526L37.6022 31.061L38.4449 30.5226ZM38.0489 37.6506L38.8333 38.2709L38.8401 38.262L38.0489 37.6506ZM34.6649 39.9546L34.3345 39.0107L34.3295 39.0125L34.6649 39.9546ZM29.7329 39.7106C29.1058 39.7106 28.3503 39.6656 27.4615 39.5721L27.2522 41.5611C28.1874 41.6595 29.0159 41.7106 29.7329 41.7106V39.7106ZM27.4615 39.5721C26.5764 39.4789 25.7035 39.3509 24.8428 39.188L24.471 41.1532C25.3863 41.3263 26.3134 41.4623 27.2522 41.5611L27.4615 39.5721ZM24.8738 39.1944C24.0455 39.0103 23.386 38.8097 22.8815 38.5995L22.1122 40.4457C22.7597 40.7154 23.5403 40.9468 24.4399 41.1468L24.8738 39.1944ZM23.4969 39.5226L23.4969 34.6986H21.4969L21.4969 39.5226H23.4969ZM22.0764 35.6059C23.1451 36.1011 24.2865 36.4504 25.4971 36.6564L25.8327 34.6848C24.7872 34.5068 23.8166 34.208 22.9173 33.7913L22.0764 35.6059ZM25.4971 36.6564C26.6718 36.8564 27.7844 36.9586 28.8329 36.9586V34.9586C27.9133 34.9586 26.9139 34.8688 25.8327 34.6848L25.4971 36.6564ZM28.8329 36.9586C30.4002 36.9586 31.7318 36.7531 32.6977 36.2234L31.736 34.4698C31.2139 34.7561 30.2895 34.9586 28.8329 34.9586V36.9586ZM32.686 36.2297C33.8648 35.6035 34.3689 34.4584 34.3689 33.1146H32.3689C32.3689 33.9308 32.1049 34.2737 31.7477 34.4635L32.686 36.2297ZM34.3689 33.1146C34.3689 31.9703 33.8984 31.006 32.9067 30.4183L31.8871 32.1389C32.1914 32.3192 32.3689 32.5789 32.3689 33.1146H34.3689ZM32.921 30.4269C32.0685 29.9023 30.9399 29.7026 29.6609 29.7026V31.7026C30.7818 31.7026 31.4772 31.8868 31.8728 32.1302L32.921 30.4269ZM29.6609 29.7026H25.8809V31.7026H29.6609V29.7026ZM26.8762 30.7995L27.2722 26.7315L25.2816 26.5377L24.8856 30.6057L26.8762 30.7995ZM26.2769 27.6346H29.4089V25.6346H26.2769V27.6346ZM29.4089 27.6346C30.6917 27.6346 31.8352 27.4421 32.6439 26.8795L31.5018 25.2377C31.2065 25.4431 30.574 25.6346 29.4089 25.6346V27.6346ZM32.6673 26.8628C33.5468 26.2127 33.9009 25.2174 33.9009 24.1146H31.9009C31.9009 24.7878 31.7029 25.0885 31.4785 25.2544L32.6673 26.8628ZM33.9009 24.1146C33.9009 22.9554 33.4091 21.9925 32.4336 21.3654L31.3521 23.0478C31.7206 23.2847 31.9009 23.5938 31.9009 24.1146H33.9009ZM32.4476 21.3745C31.5448 20.7727 30.2384 20.5586 28.7249 20.5586V22.5586C30.1393 22.5586 30.9449 22.7765 31.3382 23.0386L32.4476 21.3745ZM28.7249 20.5586C27.6147 20.5586 26.4964 20.6877 25.3712 20.9435L25.8145 22.8937C26.8013 22.6694 27.771 22.5586 28.7249 22.5586V20.5586ZM25.3925 20.9389C24.2789 21.1667 23.2881 21.476 22.4324 21.8771L23.2813 23.688C23.9616 23.3691 24.7949 23.1025 25.7933 22.8983L25.3925 20.9389ZM23.8569 22.7826V18.0306H21.8569V22.7826H23.8569ZM23.2283 18.9591C23.9909 18.654 24.9692 18.381 26.1777 18.1486L25.8 16.1846C24.5125 16.4322 23.4028 16.7352 22.4855 17.1021L23.2283 18.9591ZM26.1743 18.1492C27.3862 17.9206 28.5962 17.8066 29.8049 17.8066V15.8066C28.4696 15.8066 27.1355 15.9326 25.8035 16.1839L26.1743 18.1492ZM29.8049 17.8066C32.6095 17.8066 34.5805 18.4067 35.8703 19.4547L37.1315 17.9025C35.3493 16.4544 32.8563 15.8066 29.8049 15.8066V17.8066ZM35.8836 19.4653C37.2112 20.507 37.8409 21.7932 37.8409 23.3946H39.8409C39.8409 21.156 38.9105 19.2982 37.1181 17.8918L35.8836 19.4653ZM37.8409 23.3946C37.8409 24.3479 37.635 25.2263 37.2264 26.0434L39.0153 26.9378C39.5667 25.8349 39.8409 24.6492 39.8409 23.3946H37.8409ZM37.2176 26.0615C36.8584 26.8177 36.3121 27.3749 35.5496 27.7562L36.4441 29.545C37.6016 28.9662 38.4713 28.0835 39.0241 26.9196L37.2176 26.0615ZM35.6683 29.5951C36.5893 29.9154 37.2025 30.4074 37.5916 31.044L39.2981 30.0011C38.6312 28.9098 37.6125 28.1538 36.3254 27.7061L35.6683 29.5951ZM37.6022 31.061C38.033 31.7353 38.2729 32.584 38.2729 33.6546H40.2729C40.2729 32.2772 39.9607 31.0379 39.2876 29.9842L37.6022 31.061ZM38.2729 33.6546C38.2729 35.088 37.9122 36.192 37.2576 37.0391L38.8401 38.262C39.8175 36.9972 40.2729 35.4371 40.2729 33.6546H38.2729ZM37.2644 37.0303C36.5838 37.8911 35.6247 38.5592 34.3345 39.0107L34.9952 40.8984C36.585 40.342 37.8819 39.4741 38.8333 38.2708L37.2644 37.0303ZM34.3295 39.0125C33.0439 39.4701 31.5175 39.7106 29.7329 39.7106V41.7106C31.6922 41.7106 33.4538 41.4471 35.0002 40.8967L34.3295 39.0125Z" fill="white"/>
<defs>
<filter id="filter0_d_213_1166" x="0.884766" y="0" width="55.416" height="59.4163" filterUnits="userSpaceOnUse" color-interpolation-filters="sRGB">
<feFlood flood-opacity="0" result="BackgroundImageFix"/>
<feColorMatrix in="SourceAlpha" type="matrix" values="0 0 0 0 0 0 0 0 0 0 0 0 0 0 0 0 0 0 127 0" result="hardAlpha"/>
<feOffset dy="4"/>
<feComposite in2="hardAlpha" operator="out"/>
<feColorMatrix type="matrix" values="0 0 0 0 0.571957 0 0 0 0 1 0 0 0 0 0.0975001 0 0 0 1 0"/>
<feBlend mode="normal" in2="BackgroundImageFix" result="effect1_dropShadow_213_1166"/>
<feBlend mode="normal" in="SourceGraphic" in2="effect1_dropShadow_213_1166" result="shape"/>
</filter>
</defs>
</svg>
