<svg width="57" height="60" viewBox="0 0 57 60" fill="none" xmlns="http://www.w3.org/2000/svg">
<g filter="url(#filter0_d_213_1154)">
<circle cx="28.6495" cy="27.7081" r="27.7081" fill="#15CED4"/>
</g>
<path d="M29.7895 40.7103C29.1175 40.7103 28.3255 40.6623 27.4135 40.5663C26.5015 40.4703 25.6015 40.3383 24.7135 40.1703C23.8495 39.9783 23.1295 39.7623 22.5535 39.5223V34.6983C23.5375 35.1543 24.5935 35.4783 25.7215 35.6703C26.8495 35.8623 27.9055 35.9583 28.8895 35.9583C30.4015 35.9583 31.5295 35.7543 32.2735 35.3463C33.0415 34.9383 33.4255 34.1943 33.4255 33.1143C33.4255 32.2743 33.1015 31.6623 32.4535 31.2783C31.8295 30.8943 30.9175 30.7023 29.7175 30.7023H25.9375L26.3335 26.6343H29.4655C30.6895 26.6343 31.5775 26.4423 32.1295 26.0583C32.6815 25.6503 32.9575 25.0023 32.9575 24.1143C32.9575 23.2743 32.6215 22.6383 31.9495 22.2063C31.3015 21.7743 30.2455 21.5583 28.7815 21.5583C27.7495 21.5583 26.7055 21.6783 25.6495 21.9183C24.5935 22.1343 23.6815 22.4223 22.9135 22.7823V18.0303C23.7535 17.6943 24.7975 17.4063 26.0455 17.1663C27.3175 16.9263 28.5895 16.8063 29.8615 16.8063C32.7895 16.8063 35.0215 17.4303 36.5575 18.6783C38.1175 19.9023 38.8975 21.4743 38.8975 23.3943C38.8975 24.4983 38.6575 25.5303 38.1775 26.4903C37.7215 27.4503 37.0135 28.1703 36.0535 28.6503C37.1575 29.0343 37.9735 29.6583 38.5015 30.5223C39.0535 31.3863 39.3295 32.4303 39.3295 33.6543C39.3295 35.2623 38.9215 36.5943 38.1055 37.6503C37.2895 38.6823 36.1615 39.4503 34.7215 39.9543C33.3055 40.4583 31.6615 40.7103 29.7895 40.7103Z" fill="black"/>
<path d="M27.4135 40.5663L27.5182 39.5718L27.4135 40.5663ZM24.7135 40.1703L24.4966 41.1465L24.512 41.15L24.5276 41.1529L24.7135 40.1703ZM22.5535 39.5223H21.5535V40.189L22.1689 40.4454L22.5535 39.5223ZM22.5535 34.6983L22.974 33.791L21.5535 33.1328V34.6983H22.5535ZM25.7215 35.6703L25.5537 36.6562L25.7215 35.6703ZM32.2735 35.3463L31.8043 34.4631L31.7927 34.4695L32.2735 35.3463ZM32.4535 31.2783L31.9294 32.13L31.9365 32.1344L31.9437 32.1386L32.4535 31.2783ZM25.9375 30.7023L24.9422 30.6055L24.8354 31.7023H25.9375V30.7023ZM26.3335 26.6343V25.6343H25.4261L25.3382 26.5375L26.3335 26.6343ZM32.1295 26.0583L32.7006 26.8792L32.7123 26.871L32.7239 26.8625L32.1295 26.0583ZM31.9495 22.2063L31.3948 23.0384L31.4017 23.043L31.4087 23.0475L31.9495 22.2063ZM25.6495 21.9183L25.8499 22.8981L25.8605 22.8959L25.8711 22.8935L25.6495 21.9183ZM22.9135 22.7823H21.9135V24.3555L23.3379 23.6878L22.9135 22.7823ZM22.9135 18.0303L22.5421 17.1019L21.9135 17.3533V18.0303H22.9135ZM26.0455 17.1663L25.8601 16.1837L25.8567 16.1843L26.0455 17.1663ZM36.5575 18.6783L35.9269 19.4545L35.9335 19.4598L35.9402 19.4651L36.5575 18.6783ZM38.1775 26.4903L37.2831 26.0431L37.2786 26.0522L37.2742 26.0613L38.1775 26.4903ZM36.0535 28.6503L35.6063 27.7559L33.486 28.8161L35.725 29.5948L36.0535 28.6503ZM38.5015 30.5223L37.6482 31.0438L37.6534 31.0523L37.6588 31.0607L38.5015 30.5223ZM38.1055 37.6503L38.89 38.2706L38.8968 38.2618L38.1055 37.6503ZM34.7215 39.9543L34.3911 39.0105L34.3862 39.0122L34.7215 39.9543ZM29.7895 39.7103C29.1624 39.7103 28.407 39.6654 27.5182 39.5718L27.3088 41.5608C28.244 41.6593 29.0726 41.7103 29.7895 41.7103V39.7103ZM27.5182 39.5718C26.633 39.4787 25.7601 39.3506 24.8994 39.1878L24.5276 41.1529C25.4429 41.3261 26.37 41.462 27.3088 41.5608L27.5182 39.5718ZM24.9304 39.1942C24.1021 39.0101 23.4427 38.8095 22.9381 38.5993L22.1689 40.4454C22.8163 40.7152 23.5969 40.9466 24.4966 41.1465L24.9304 39.1942ZM23.5535 39.5223V34.6983H21.5535V39.5223H23.5535ZM22.133 35.6057C23.2017 36.1009 24.3432 36.4501 25.5537 36.6562L25.8893 34.6845C24.8438 34.5066 23.8733 34.2078 22.974 33.791L22.133 35.6057ZM25.5537 36.6562C26.7284 36.8561 27.8411 36.9583 28.8895 36.9583V34.9583C27.9699 34.9583 26.9706 34.8686 25.8893 34.6845L25.5537 36.6562ZM28.8895 36.9583C30.4569 36.9583 31.7884 36.7528 32.7543 36.2232L31.7927 34.4695C31.2706 34.7558 30.3461 34.9583 28.8895 34.9583V36.9583ZM32.7427 36.2295C33.9214 35.6032 34.4255 34.4581 34.4255 33.1143H32.4255C32.4255 33.9306 32.1616 34.2735 31.8043 34.4632L32.7427 36.2295ZM34.4255 33.1143C34.4255 31.97 33.955 31.0057 32.9633 30.4181L31.9437 32.1386C32.248 32.319 32.4255 32.5787 32.4255 33.1143H34.4255ZM32.9776 30.4267C32.1251 29.9021 30.9965 29.7023 29.7175 29.7023V31.7023C30.8385 31.7023 31.5339 31.8866 31.9294 32.13L32.9776 30.4267ZM29.7175 29.7023H25.9375V31.7023H29.7175V29.7023ZM26.9328 30.7992L27.3288 26.7312L25.3382 26.5375L24.9422 30.6055L26.9328 30.7992ZM26.3335 27.6343H29.4655V25.6343H26.3335V27.6343ZM29.4655 27.6343C30.7483 27.6343 31.8919 27.4418 32.7006 26.8792L31.5584 25.2374C31.2631 25.4429 30.6307 25.6343 29.4655 25.6343V27.6343ZM32.7239 26.8625C33.6034 26.2124 33.9575 25.2172 33.9575 24.1143H31.9575C31.9575 24.7875 31.7596 25.0883 31.5351 25.2542L32.7239 26.8625ZM33.9575 24.1143C33.9575 22.9551 33.4658 21.9923 32.4903 21.3652L31.4087 23.0475C31.7772 23.2844 31.9575 23.5935 31.9575 24.1143H33.9575ZM32.5042 21.3743C31.6014 20.7725 30.295 20.5583 28.7815 20.5583V22.5583C30.196 22.5583 31.0016 22.7762 31.3948 23.0384L32.5042 21.3743ZM28.7815 20.5583C27.6713 20.5583 26.553 20.6875 25.4279 20.9432L25.8711 22.8935C26.858 22.6692 27.8277 22.5583 28.7815 22.5583V20.5583ZM25.4491 20.9386C24.3355 21.1664 23.3448 21.4758 22.4891 21.8769L23.3379 23.6878C24.0182 23.3689 24.8515 23.1023 25.8499 22.8981L25.4491 20.9386ZM23.9135 22.7823V18.0303H21.9135V22.7823H23.9135ZM23.2849 18.9588C24.0476 18.6537 25.0258 18.3808 26.2343 18.1483L25.8567 16.1843C24.5692 16.4319 23.4594 16.7349 22.5421 17.1019L23.2849 18.9588ZM26.2309 18.149C27.4429 17.9203 28.6528 17.8063 29.8615 17.8063V15.8063C28.5262 15.8063 27.1921 15.9323 25.8601 16.1837L26.2309 18.149ZM29.8615 17.8063C32.6661 17.8063 34.6371 18.4065 35.9269 19.4545L37.1881 17.9022C35.4059 16.4542 32.9129 15.8063 29.8615 15.8063V17.8063ZM35.9402 19.4651C37.2678 20.5067 37.8975 21.793 37.8975 23.3943H39.8975C39.8975 21.1557 38.9672 19.2979 37.1748 17.8916L35.9402 19.4651ZM37.8975 23.3943C37.8975 24.3477 37.6916 25.226 37.2831 26.0431L39.0719 26.9376C39.6234 25.8347 39.8975 24.649 39.8975 23.3943H37.8975ZM37.2742 26.0613C36.915 26.8174 36.3687 27.3747 35.6063 27.7559L36.5007 29.5448C37.6583 28.966 38.528 28.0832 39.0808 26.9194L37.2742 26.0613ZM35.725 29.5948C36.6459 29.9152 37.2592 30.4072 37.6482 31.0438L39.3548 30.0009C38.6878 28.9095 37.6691 28.1535 36.382 27.7058L35.725 29.5948ZM37.6588 31.0607C38.0896 31.7351 38.3295 32.5837 38.3295 33.6543H40.3295C40.3295 32.277 40.0174 31.0376 39.3442 29.984L37.6588 31.0607ZM38.3295 33.6543C38.3295 35.0878 37.9689 36.1917 37.3142 37.0389L38.8968 38.2618C39.8741 36.997 40.3295 35.4369 40.3295 33.6543H38.3295ZM37.3211 37.0301C36.6405 37.8909 35.6813 38.5589 34.3912 39.0105L35.0519 40.8982C36.6417 40.3418 37.9385 39.4738 38.8899 38.2706L37.3211 37.0301ZM34.3862 39.0122C33.1006 39.4698 31.5742 39.7103 29.7895 39.7103V41.7103C31.7488 41.7103 33.5104 41.4469 35.0568 40.8964L34.3862 39.0122Z" fill="white"/>
<defs>
<filter id="filter0_d_213_1154" x="0.941406" y="0" width="55.416" height="59.4163" filterUnits="userSpaceOnUse" color-interpolation-filters="sRGB">
<feFlood flood-opacity="0" result="BackgroundImageFix"/>
<feColorMatrix in="SourceAlpha" type="matrix" values="0 0 0 0 0 0 0 0 0 0 0 0 0 0 0 0 0 0 127 0" result="hardAlpha"/>
<feOffset dy="4"/>
<feComposite in2="hardAlpha" operator="out"/>
<feColorMatrix type="matrix" values="0 0 0 0 0.280833 0 0 0 0 1 0 0 0 0 0.845893 0 0 0 1 0"/>
<feBlend mode="normal" in2="BackgroundImageFix" result="effect1_dropShadow_213_1154"/>
<feBlend mode="normal" in="SourceGraphic" in2="effect1_dropShadow_213_1154" result="shape"/>
</filter>
</defs>
</svg>
