<svg width="56" height="60" viewBox="0 0 56 60" fill="none" xmlns="http://www.w3.org/2000/svg">
<g filter="url(#filter0_d_213_1142)">
<circle cx="27.7081" cy="27.7081" r="27.7081" fill="#D252B3"/>
</g>
<path d="M28.763 41.1094V36.5014H17.855V32.6494L29.483 17.9254H34.559V31.8214H36.719V36.5014H34.559V41.1094H28.763ZM23.435 32.0374H29.735V24.2974L23.435 32.0374Z" fill="black"/>
<path d="M28.763 41.1094H27.763V42.1094H28.763V41.1094ZM28.763 36.5014H29.763V35.5014H28.763V36.5014ZM17.855 36.5014H16.855V37.5014H17.855V36.5014ZM17.855 32.6494L17.0702 32.0296L16.855 32.3021V32.6494H17.855ZM29.483 17.9254V16.9254H28.9985L28.6982 17.3056L29.483 17.9254ZM34.559 17.9254H35.559V16.9254H34.559V17.9254ZM34.559 31.8214L33.559 31.8214V32.8214H34.559V31.8214ZM36.719 31.8214H37.719V30.8214H36.719V31.8214ZM36.719 36.5014V37.5014H37.719V36.5014H36.719ZM34.559 36.5014V35.5014H33.559V36.5014H34.559ZM34.559 41.1094V42.1094H35.559V41.1094H34.559ZM23.435 32.0374L22.6594 31.4061L21.3316 33.0374H23.435V32.0374ZM29.735 32.0374V33.0374H30.735V32.0374H29.735ZM29.735 24.2974H30.735V21.4847L28.9594 23.6661L29.735 24.2974ZM29.763 41.1094V36.5014H27.763V41.1094H29.763ZM28.763 35.5014H17.855V37.5014H28.763V35.5014ZM18.855 36.5014V32.6494H16.855V36.5014H18.855ZM18.6398 33.2691L30.2678 18.5451L28.6982 17.3056L17.0702 32.0296L18.6398 33.2691ZM29.483 18.9254H34.559V16.9254H29.483V18.9254ZM33.559 17.9254V31.8214L35.559 31.8214V17.9254H33.559ZM34.559 32.8214H36.719V30.8214H34.559V32.8214ZM35.719 31.8214V36.5014H37.719V31.8214H35.719ZM36.719 35.5014H34.559V37.5014H36.719V35.5014ZM33.559 36.5014V41.1094H35.559V36.5014H33.559ZM34.559 40.1094H28.763V42.1094H34.559V40.1094ZM23.435 33.0374H29.735V31.0374H23.435V33.0374ZM30.735 32.0374V24.2974H28.735V32.0374H30.735ZM28.9594 23.6661L22.6594 31.4061L24.2105 32.6686L30.5105 24.9286L28.9594 23.6661Z" fill="white"/>
<defs>
<filter id="filter0_d_213_1142" x="0" y="0" width="55.416" height="59.4163" filterUnits="userSpaceOnUse" color-interpolation-filters="sRGB">
<feFlood flood-opacity="0" result="BackgroundImageFix"/>
<feColorMatrix in="SourceAlpha" type="matrix" values="0 0 0 0 0 0 0 0 0 0 0 0 0 0 0 0 0 0 127 0" result="hardAlpha"/>
<feOffset dy="4"/>
<feComposite in2="hardAlpha" operator="out"/>
<feColorMatrix type="matrix" values="0 0 0 0 1 0 0 0 0 0.151667 0 0 0 0 0.794544 0 0 0 1 0"/>
<feBlend mode="normal" in2="BackgroundImageFix" result="effect1_dropShadow_213_1142"/>
<feBlend mode="normal" in="SourceGraphic" in2="effect1_dropShadow_213_1142" result="shape"/>
</filter>
</defs>
</svg>
