<svg width="57" height="60" viewBox="0 0 57 60" fill="none" xmlns="http://www.w3.org/2000/svg">
<g filter="url(#filter0_d_213_1160)">
<circle cx="28.6222" cy="27.7081" r="27.7081" fill="#2DB99B"/>
</g>
<path d="M19.491 40.3503L28.347 17.1663H34.611L43.467 40.3503H37.419L35.331 35.0943H27.591L25.539 40.3503H19.491ZM28.383 30.8103H34.539L31.443 22.7463L28.383 30.8103Z" fill="black"/>
<path d="M19.491 40.3503L18.5568 39.9935L18.0385 41.3503H19.491V40.3503ZM28.347 17.1663V16.1663H27.6585L27.4128 16.8095L28.347 17.1663ZM34.611 17.1663L35.5452 16.8095L35.2995 16.1663H34.611V17.1663ZM43.467 40.3503V41.3503H44.9195L44.4012 39.9935L43.467 40.3503ZM37.419 40.3503L36.4896 40.7195L36.7402 41.3503H37.419V40.3503ZM35.331 35.0943L36.2604 34.7251L36.0098 34.0943H35.331V35.0943ZM27.591 35.0943V34.0943H26.9079L26.6595 34.7307L27.591 35.0943ZM25.539 40.3503V41.3503H26.2221L26.4705 40.714L25.539 40.3503ZM28.383 30.8103L27.4481 30.4556L26.934 31.8103H28.383V30.8103ZM34.539 30.8103V31.8103H35.9941L35.4726 30.4519L34.539 30.8103ZM31.443 22.7463L32.3766 22.3879L31.4375 19.9421L30.508 22.3916L31.443 22.7463ZM20.4252 40.7072L29.2812 17.5232L27.4128 16.8095L18.5568 39.9935L20.4252 40.7072ZM28.347 18.1663H34.611V16.1663H28.347V18.1663ZM33.6768 17.5232L42.5328 40.7072L44.4012 39.9935L35.5452 16.8095L33.6768 17.5232ZM43.467 39.3503H37.419V41.3503H43.467V39.3503ZM38.3484 39.9811L36.2604 34.7251L34.4016 35.4635L36.4896 40.7195L38.3484 39.9811ZM35.331 34.0943H27.591V36.0943H35.331V34.0943ZM26.6595 34.7307L24.6075 39.9867L26.4705 40.714L28.5225 35.458L26.6595 34.7307ZM25.539 39.3503H19.491V41.3503H25.539V39.3503ZM28.383 31.8103H34.539V29.8103H28.383V31.8103ZM35.4726 30.4519L32.3766 22.3879L30.5094 23.1048L33.6054 31.1688L35.4726 30.4519ZM30.508 22.3916L27.4481 30.4556L29.318 31.1651L32.3779 23.1011L30.508 22.3916Z" fill="white"/>
<defs>
<filter id="filter0_d_213_1160" x="0.914062" y="0" width="55.416" height="59.4163" filterUnits="userSpaceOnUse" color-interpolation-filters="sRGB">
<feFlood flood-opacity="0" result="BackgroundImageFix"/>
<feColorMatrix in="SourceAlpha" type="matrix" values="0 0 0 0 0 0 0 0 0 0 0 0 0 0 0 0 0 0 127 0" result="hardAlpha"/>
<feOffset dy="4"/>
<feComposite in2="hardAlpha" operator="out"/>
<feColorMatrix type="matrix" values="0 0 0 0 0.0823529 0 0 0 0 0.803922 0 0 0 0 0.658824 0 0 0 1 0"/>
<feBlend mode="normal" in2="BackgroundImageFix" result="effect1_dropShadow_213_1160"/>
<feBlend mode="normal" in="SourceGraphic" in2="effect1_dropShadow_213_1160" result="shape"/>
</filter>
</defs>
</svg>
