<svg width="25" height="25" viewBox="0 0 25 25" fill="none" xmlns="http://www.w3.org/2000/svg">
<g clip-path="url(#clip0_213_1056)">
<path d="M13.4755 19.4448L24.6006 8.3195C24.8581 8.06218 25 7.71869 25 7.35243C25 6.98617 24.8581 6.64268 24.6006 6.38537L23.7815 5.56606C23.2478 5.03294 22.3803 5.03294 21.8474 5.56606L12.5052 14.9083L3.15262 5.5557C2.8951 5.29838 2.55181 5.15631 2.18576 5.15631C1.8193 5.15631 1.47601 5.29838 1.21828 5.5557L0.399389 6.375C0.14187 6.63252 1.82782e-06 6.97581 1.81181e-06 7.34206C1.7958e-06 7.70832 0.14187 8.05182 0.399389 8.30913L11.5347 19.4448C11.793 19.7027 12.1379 19.8444 12.5046 19.8436C12.8727 19.8444 13.2174 19.7027 13.4755 19.4448Z" fill="#15CDA8"/>
</g>
<defs>
<clipPath id="clip0_213_1056">
<rect width="25" height="25" fill="white" transform="translate(25) rotate(90)"/>
</clipPath>
</defs>
</svg>
